<?xml version="1.0" encoding="UTF-8" standalone="no"?>
<!-- Created with Inkscape (http://www.inkscape.org/) -->

<svg
   xmlns:dc="http://purl.org/dc/elements/1.1/"
   xmlns:cc="http://creativecommons.org/ns#"
   xmlns:rdf="http://www.w3.org/1999/02/22-rdf-syntax-ns#"
   xmlns:svg="http://www.w3.org/2000/svg"
   xmlns="http://www.w3.org/2000/svg"
   xmlns:sodipodi="http://sodipodi.sourceforge.net/DTD/sodipodi-0.dtd"
   xmlns:inkscape="http://www.inkscape.org/namespaces/inkscape"
   height="225.56"
   width="338.12"
   id="svg2204"
   sodipodi:version="0.32"
   inkscape:version="0.92.2 (5c3e80d, 2017-08-06)"
   sodipodi:docname="Alizaryna.svg"
   inkscape:output_extension="org.inkscape.output.svg.inkscape"
   inkscape:export-filename="K:\Documents and Settings\Jeremiasz\Pulpit\Prace\alizaryna.png"
   inkscape:export-xdpi="90"
   inkscape:export-ydpi="90"
   version="1.0">
  <defs
     id="defs2206" />
  <sodipodi:namedview
     id="base"
     pagecolor="#ffffff"
     bordercolor="#666666"
     borderopacity="1.0"
     inkscape:pageopacity="0.0"
     inkscape:pageshadow="2"
     inkscape:cx="154.61792"
     inkscape:cy="108.13333"
     inkscape:zoom="3.4432389"
     inkscape:document-units="px"
     inkscape:current-layer="layer1"
     showguides="true"
     inkscape:guide-bbox="true"
     inkscape:window-width="1272"
     inkscape:window-height="962"
     inkscape:window-x="-4"
     inkscape:window-y="-4"
     width="338.12px"
     height="225.56px"
     showgrid="false"
     inkscape:window-maximized="0">
    <sodipodi:guide
       orientation="horizontal"
       position="351.55692"
       id="guide2218"
       inkscape:locked="false" />
    <sodipodi:guide
       orientation="horizontal"
       position="328.92857"
       id="guide2220"
       inkscape:locked="false" />
    <sodipodi:guide
       orientation="horizontal"
       position="464.53125"
       id="guide3213"
       inkscape:locked="false" />
    <sodipodi:guide
       orientation="horizontal"
       position="462.34375"
       id="guide3215"
       inkscape:locked="false" />
    <sodipodi:guide
       orientation="vertical"
       position="398.15625"
       id="guide4202"
       inkscape:locked="false" />
  </sodipodi:namedview>
  <metadata
     id="metadata2209">
    <rdf:RDF>
      <cc:Work
         rdf:about="">
        <dc:format>image/svg+xml</dc:format>
        <dc:type
           rdf:resource="http://purl.org/dc/dcmitype/StillImage" />
      </cc:Work>
    </rdf:RDF>
  </metadata>
  <g
     inkscape:groupmode="layer"
     inkscape:label="Warstwa 1"
     id="layer1"
     transform="translate(-182.93521,-566.6582)">
    <path
       transform="matrix(0.8573603,0.4949972,-0.4949972,0.8573603,309.42747,202.87419)"
       style="fill:none;fill-rule:evenodd;stroke:#000000;stroke-width:2.02021337;stroke-linecap:butt;stroke-linejoin:miter;stroke-miterlimit:4;stroke-dasharray:none;stroke-opacity:1"
       d="m 219.97959,457.36219 -24.9898,43.28359 -49.97959,-10e-6 -24.98979,-43.28359 24.9898,-43.28359 h 49.97959"
       id="path2199"
       inkscape:connector-curvature="0"
       sodipodi:nodetypes="cccccc" />
    <path
       style="fill:none;fill-rule:evenodd;stroke:#000000;stroke-width:2;stroke-linecap:butt;stroke-linejoin:miter;stroke-miterlimit:4;stroke-dasharray:none;stroke-opacity:1"
       d="M 262.72255,659.31528 L 228.48748,639.54969 M 228.48816,718.61098 L 262.71718,698.82458 M 194.24704,659.29334 L 194.25311,698.84528"
       id="path3173"
       sodipodi:nodetypes="cccccc" />
    <path
       transform="matrix(0.8573603,0.4949972,-0.4949972,0.8573603,395.13244,202.87475)"
       style="fill:none;fill-rule:evenodd;stroke:#000000;stroke-width:2.02021337;stroke-linecap:butt;stroke-linejoin:miter;stroke-miterlimit:4;stroke-dasharray:none;stroke-opacity:1"
       d="m 219.97959,457.36219 -24.9898,43.28359 -49.97959,-10e-6 -24.98979,-43.28359 24.9898,-43.28359 49.97959,0"
       id="path2214"
       inkscape:connector-curvature="0"
       sodipodi:nodetypes="cccccc" />
    <path
       style="fill:none;fill-rule:evenodd;stroke:#000000;stroke-width:2;stroke-linecap:butt;stroke-linejoin:miter;stroke-miterlimit:4;stroke-dasharray:none;stroke-opacity:1"
       d="M 309.92411,725.93361 L 309.92411,765.95855"
       id="path2222" />
    <path
       style="fill:none;fill-rule:evenodd;stroke:#000000;stroke-width:2;stroke-linecap:butt;stroke-linejoin:miter;stroke-miterlimit:4;stroke-dasharray:none;stroke-opacity:1"
       d="M 319.0932,725.93361 L 319.0932,765.95593"
       id="path2224" />
    <path
       style="fill:none;fill-rule:evenodd;stroke:#000000;stroke-width:2;stroke-linecap:butt;stroke-linejoin:miter;stroke-miterlimit:4;stroke-dasharray:none;stroke-opacity:1"
       d="M 309.91246,592.53232 L 309.91246,632.55726"
       id="path3199" />
    <path
       style="fill:none;fill-rule:evenodd;stroke:#000000;stroke-width:2;stroke-linecap:butt;stroke-linejoin:miter;stroke-miterlimit:4;stroke-dasharray:none;stroke-opacity:1"
       d="M 319.08155,592.53232 L 319.08155,632.55464"
       id="path3201" />
    <path
       style="font-size:28px;font-style:normal;font-variant:normal;font-weight:normal;font-stretch:normal;text-align:start;line-height:125%;writing-mode:lr-tb;text-anchor:start;fill:#000000;fill-opacity:1;stroke:none;stroke-width:1px;stroke-linecap:butt;stroke-linejoin:miter;stroke-opacity:1;font-family:Bitstream Vera Sans"
       d="M 314.48926,571.40039 C 312.48404,571.40041 310.89127,572.1478 309.71094,573.64258 C 308.53059,575.13738 307.94043,577.17449 307.94043,579.75391 C 307.94043,582.32423 308.53059,584.35678 309.71094,585.85156 C 310.89127,587.34636 312.48404,588.09375 314.48926,588.09375 C 316.49445,588.09375 318.08267,587.34636 319.25391,585.85156 C 320.42511,584.35678 321.01072,582.32423 321.01074,579.75391 C 321.01072,577.17449 320.42511,575.13738 319.25391,573.64258 C 318.08267,572.1478 316.49445,571.40041 314.48926,571.40039 L 314.48926,571.40039 z M 314.48926,569.1582 C 317.35122,569.15822 319.63898,570.11753 321.35254,572.03613 C 323.06606,573.95477 323.92283,576.52736 323.92285,579.75391 C 323.92283,582.97136 323.06606,585.53939 321.35254,587.45801 C 319.63898,589.37663 317.35122,590.33594 314.48926,590.33594 C 311.61816,590.33594 309.32356,589.37891 307.60547,587.46484 C 305.88737,585.55079 305.02832,582.98048 305.02832,579.75391 C 305.02832,576.52736 305.88737,573.95477 307.60547,572.03613 C 309.32356,570.11753 311.61816,569.15822 314.48926,569.1582 L 314.48926,569.1582 z "
       id="text3203" />
    <path
       style="font-size:28px;font-style:normal;font-variant:normal;font-weight:normal;font-stretch:normal;text-align:start;line-height:125%;writing-mode:lr-tb;text-anchor:start;fill:#000000;fill-opacity:1;stroke:none;stroke-width:1px;stroke-linecap:butt;stroke-linejoin:miter;stroke-opacity:1;font-family:Bitstream Vera Sans"
       d="M 314.52585,770.78241 C 312.52063,770.78243 310.92786,771.52982 309.74753,773.0246 C 308.56718,774.5194 307.97702,776.55651 307.97702,779.13593 C 307.97702,781.70625 308.56718,783.7388 309.74753,785.23358 C 310.92786,786.72838 312.52063,787.47577 314.52585,787.47577 C 316.53104,787.47577 318.11926,786.72838 319.2905,785.23358 C 320.4617,783.7388 321.04732,781.70625 321.04733,779.13593 C 321.04732,776.55651 320.4617,774.5194 319.2905,773.0246 C 318.11926,771.52982 316.53104,770.78243 314.52585,770.78241 L 314.52585,770.78241 z M 314.52585,768.54022 C 317.38781,768.54024 319.67557,769.49955 321.38913,771.41815 C 323.10265,773.33679 323.95942,775.90938 323.95944,779.13593 C 323.95942,782.35338 323.10265,784.92141 321.38913,786.84003 C 319.67557,788.75865 317.38781,789.71796 314.52585,789.71796 C 311.65475,789.71796 309.36015,788.76093 307.64206,786.84686 C 305.92396,784.9328 305.06491,782.36249 305.06491,779.13593 C 305.06491,775.90938 305.92396,773.33679 307.64206,771.41815 C 309.36015,769.49955 311.65475,768.54024 314.52585,768.54022 L 314.52585,768.54022 z "
       id="text3207" />
    <path
       style="fill:none;fill-rule:evenodd;stroke:#000000;stroke-width:2.02021337;stroke-linecap:butt;stroke-linejoin:miter;stroke-miterlimit:4;stroke-dasharray:none;stroke-opacity:1"
       d="m 194.98979,500.64578 -49.97959,-10e-6 -24.98979,-43.28359 24.9898,-43.28359 49.97959,0 24.98979,43.2836 z"
       id="path3221"
       transform="matrix(-0.8573603,0.4949972,0.4949972,0.8573603,319.55328,202.87172)" />
    <path
       style="fill:none;fill-rule:evenodd;stroke:#000000;stroke-width:2;stroke-linecap:butt;stroke-linejoin:miter;stroke-miterlimit:4;stroke-dasharray:none;stroke-opacity:1"
       d="M 366.2582,659.31281 L 400.49327,639.54722 M 400.49259,718.60851 L 366.26357,698.82211 M 434.73371,659.29087 L 434.72764,698.84281"
       id="path3223"
       sodipodi:nodetypes="cccccc" />
    <path
       style="fill:none;fill-rule:evenodd;stroke:#000000;stroke-width:2;stroke-linecap:butt;stroke-linejoin:miter;stroke-miterlimit:4;stroke-dasharray:none;stroke-opacity:1"
       d="M 400.16741,629.74738 L 400.16741,592.51843"
       id="path3225" />
    <path
       style="fill:none;fill-rule:evenodd;stroke:#000000;stroke-width:2;stroke-linecap:butt;stroke-linejoin:miter;stroke-miterlimit:4;stroke-dasharray:none;stroke-opacity:1"
       d="M 442.98437,654.48718 L 477.615,634.49318"
       id="path3227" />
    <path
       style="font-size:28px;font-style:normal;font-variant:normal;font-weight:normal;font-stretch:normal;text-align:start;line-height:125%;writing-mode:lr-tb;text-anchor:start;fill:#000000;fill-opacity:1;stroke:none;stroke-width:1px;stroke-linecap:butt;stroke-linejoin:miter;stroke-opacity:1;font-family:Bitstream Vera Sans"
       d="M 400.18396,571.41022 C 398.17874,571.41024 396.58597,572.15763 395.40564,573.6524 C 394.2253,575.14721 393.63513,577.18432 393.63513,579.76373 C 393.63513,582.33405 394.2253,584.3666 395.40564,585.86139 C 396.58597,587.35618 398.17874,588.10358 400.18396,588.10358 C 402.18916,588.10358 403.77737,587.35618 404.94861,585.86139 C 406.11982,584.3666 406.70543,582.33405 406.70544,579.76373 C 406.70543,577.18432 406.11982,575.14721 404.94861,573.6524 C 403.77737,572.15763 402.18916,571.41024 400.18396,571.41022 L 400.18396,571.41022 z M 400.18396,569.16803 C 403.04593,569.16805 405.33368,570.12736 407.04724,572.04596 C 408.76076,573.9646 409.61753,576.53718 409.61755,579.76373 C 409.61753,582.98119 408.76076,585.54922 407.04724,587.46783 C 405.33368,589.38645 403.04593,590.34576 400.18396,590.34576 C 397.31286,590.34576 395.01826,589.38873 393.30017,587.47467 C 391.58207,585.56061 390.72302,582.9903 390.72302,579.76373 C 390.72302,576.53718 391.58207,573.9646 393.30017,572.04596 C 395.01826,570.12736 397.31286,569.16805 400.18396,569.16803 L 400.18396,569.16803 z M 413.93787,569.53717 L 416.69958,569.53717 L 416.69958,577.90436 L 426.73474,577.90436 L 426.73474,569.53717 L 429.49646,569.53717 L 429.49646,589.94928 L 426.73474,589.94928 L 426.73474,580.22858 L 416.69958,580.22858 L 416.69958,589.94928 L 413.93787,589.94928 L 413.93787,569.53717 z "
       id="text4198" />
    <path
       style="font-size:28px;font-style:normal;font-variant:normal;font-weight:normal;font-stretch:normal;text-align:start;line-height:125%;writing-mode:lr-tb;text-anchor:start;fill:#000000;fill-opacity:1;stroke:none;stroke-width:1px;stroke-linecap:butt;stroke-linejoin:miter;stroke-opacity:1;font-family:Bitstream Vera Sans"
       d="M 488.73929,619.83722 C 486.73407,619.83724 485.1413,620.58463 483.96097,622.07941 C 482.78062,623.57421 482.19046,625.61132 482.19046,628.19073 C 482.19046,630.76105 482.78062,632.79361 483.96097,634.28839 C 485.1413,635.78319 486.73407,636.53058 488.73929,636.53058 C 490.74448,636.53058 492.3327,635.78319 493.50394,634.28839 C 494.67514,632.79361 495.26076,630.76105 495.26077,628.19073 C 495.26076,625.61132 494.67514,623.57421 493.50394,622.07941 C 492.3327,620.58463 490.74448,619.83724 488.73929,619.83722 L 488.73929,619.83722 z M 488.73929,617.59503 C 491.60125,617.59505 493.88901,618.55436 495.60257,620.47296 C 497.31609,622.3916 498.17286,624.96419 498.17288,628.19073 C 498.17286,631.40819 497.31609,633.97622 495.60257,635.89484 C 493.88901,637.81346 491.60125,638.77277 488.73929,638.77277 C 485.86819,638.77277 483.57359,637.81574 481.8555,635.90167 C 480.1374,633.98761 479.27835,631.4173 479.27835,628.19073 C 479.27835,624.96419 480.1374,622.3916 481.8555,620.47296 C 483.57359,618.55436 485.86819,617.59505 488.73929,617.59503 L 488.73929,617.59503 z M 502.49319,617.96417 L 505.25491,617.96417 L 505.25491,626.33136 L 515.29007,626.33136 L 515.29007,617.96417 L 518.05179,617.96417 L 518.05179,638.37628 L 515.29007,638.37628 L 515.29007,628.65558 L 505.25491,628.65558 L 505.25491,638.37628 L 502.49319,638.37628 L 502.49319,617.96417 z "
       id="text4204" />
  </g>
</svg>
