<?xml version="1.0" encoding="UTF-8" standalone="no"?>
<svg xmlns:svg="http://www.w3.org/2000/svg" xmlns="http://www.w3.org/2000/svg" version="1.0" width="375.7" height="568.6" viewBox="0 0 375.7 568.6" xml:space="preserve">
<g transform="translate(50,50)">
<polygon points="8,389.6 0,394.6 0,245.6 8,250.6 8,389.6" />
<rect width="8" height="114" x="26" y="263.1" />
<polygon points="129,459.6 129,468.6 0,394.6 8,389.6 129,459.6" />
<polygon points="249.5,389.6 257.5,394.6 129,468.6 129,459.6 249.5,389.6" />
<rect width="8.1" height="113.8" x="174.2" y="348.7" transform="matrix(-0.4964,-0.8681,0.8681,-0.4964,-85.3953,761.7269)" />
<polygon points="249.5,250.6 257.5,245.6 257.5,394.6 249.5,389.6 249.5,250.6" />
<polygon points="129,180.6 129,176.1 133,173.6 257.5,245.6 249.5,250.6 129,180.6" />
<rect width="8.1" height="113.8" x="174.2" y="177.7" transform="matrix(-0.4962,0.8682,-0.8682,-0.4962,470.4126,196.3021)" />
<polygon points="8,250.6 0,245.6 125,173.6 129,176.1 129,180.6 8,250.6" />
<path d="M 101.1,71.6 L 101.1,0 L 110.9,0 L 148.6,56.3 L 148.6,0 L 157.7,0 L 157.7,71.6 L 148,71.6 L 110.3,15.3 L 110.3,71.6 L 101.1,71.6 z" />
<path d="M 173.7,71.6 L 173.7,0 L 183.2,0 L 183.2,29.4 L 220.5,29.4 L 220.5,0 L 230,0 L 230,71.6 L 220.5,71.6 L 220.5,37.9 L 183.2,37.9 L 183.2,71.7 L 173.7,71.7 L 173.7,71.6 z" />
<path d="M 275.7,84 L 275.7,90.4 L 240.2,90.4 C 240.1,88.8 240.4,87.3 241,85.8 C 241.9,83.4 243.3,81 245.3,78.7 C 247.3,76.4 250.2,73.7 253.9,70.6 C 259.7,65.8 263.7,62 265.7,59.2 C 267.7,56.4 268.8,53.8 268.8,51.3 C 268.8,48.7 267.9,46.5 266,44.7 C 264.1,42.9 261.7,42 258.7,42 C 255.5,42 253,43 251.1,44.9 C 249.2,46.8 248.2,49.4 248.2,52.8 L 241.4,52 C 241.9,47 243.6,43.1 246.6,40.5 C 249.6,37.9 253.7,36.5 258.8,36.5 C 263.9,36.5 268,37.9 271,40.8 C 274,43.7 275.5,47.2 275.5,51.4 C 275.5,53.5 275.1,55.7 274.2,57.7 C 273.3,59.7 271.9,62 269.8,64.2 C 267.7,66.4 264.4,69.6 259.7,73.6 C 255.7,76.9 253.2,79.2 252.1,80.3 C 251,81.5 250,82.7 249.3,83.9 L 275.7,83.9 L 275.7,84 z" />
<polygon points="125,83.6 133,83.6 133,173.6 129,176.1 125,173.6 125,83.6" />
</g>
</svg>

